<?xml version="1.0" encoding="UTF-8"?>
<!DOCTYPE svg PUBLIC "-//W3C//DTD SVG 1.1//EN" "http://www.w3.org/Graphics/SVG/1.1/DTD/svg11.dtd">
<!-- Creator: CorelDRAW 2020 (64-Bit) -->
<svg xmlns="http://www.w3.org/2000/svg" xml:space="preserve" width="55.7687mm" height="33.9187mm" version="1.1" style="shape-rendering:geometricPrecision; text-rendering:geometricPrecision; image-rendering:optimizeQuality; fill-rule:evenodd; clip-rule:evenodd"
viewBox="0 0 1145.1 696.45"
 xmlns:xlink="http://www.w3.org/1999/xlink"
 xmlns:xodm="http://www.corel.com/coreldraw/odm/2003">
 <defs>
  <style type="text/css">
   <![CDATA[
    .str0 {stroke:#007290;stroke-width:1.56;stroke-miterlimit:22.9256;stroke-opacity:0.258824}
    .fil2 {fill:none;fill-rule:nonzero}
    .fil0 {fill:#00A0E3;fill-opacity:0.258824}
    .fil1 {fill:#00A0E3;fill-rule:nonzero;fill-opacity:0.258824}
   ]]>
  </style>
 </defs>
 <g id="Layer_x0020_1">
  <metadata id="CorelCorpID_0Corel-Layer"/>
  <g id="_1616183300560">
   <g>
    <path class="fil0" d="M1024.42 543.75l0 -240.28c60.42,43.21 71.17,213.21 0,240.28zm87.09 -214.34c-52.82,-58.98 -47.74,-71.01 -119.75,-116.48 -29.76,75.47 -32.66,281.72 -32.66,374.51 -31.86,-22.96 -36.08,-66.95 -33.52,-109.04 4.64,-76.06 23.13,-36.53 14.08,-121.52 -6.55,-61.56 -9.57,-84.42 15.24,-134.97 43.45,-88.51 -35.43,-135.21 -63.76,-52.13 -31.29,91.76 -16.36,465.33 2.63,505.04 42.76,-12 52.04,-32.89 67.18,-74.58 1.65,1.91 40.39,109.57 139.39,-56.75 37.09,-62.32 73.24,-162.83 11.15,-214.08z"/>
    <path class="fil0" d="M719.61 663.89c114.33,75.02 62.59,-23.28 64.87,-142.39 2.8,-146.6 13.88,-115.11 -21.32,-261.72 49.66,32.59 26.1,7.89 54.43,21.84 -6.95,78.28 -55.57,373.24 40.75,390.37 19.53,-28.67 -0.44,-84.52 -5.25,-120.33 -8.65,-64.48 2.79,-85.88 7.3,-139.73 7.53,-89.81 0.75,-211.77 0.75,-305.06 -29.94,8.13 -40.32,27.79 -55.37,44.62l-51.91 -46.34c-102.04,80.74 -33.56,152.49 -16.46,246.05 16.31,89.21 -17.79,208.5 -17.79,312.68z"/>
    <path class="fil0" d="M752.27 74.12c97.51,0 146.39,-11.79 224.39,47.92 39.3,30.08 134.56,174.28 103.56,51.51 -21.39,-84.7 -52.45,-133.51 -122.57,-152.58 -80.41,-21.87 -164.01,-29.46 -205.38,53.16z"/>
   </g>
   <g>
    <path class="fil0" d="M164.42 568.2l6.94 32.77 -6.94 -32.77zm-10.89 -141.98c20.03,31.59 10.89,97.26 10.89,141.98 -26.07,-41.12 -10.84,-93.64 -10.89,-141.98zm-43.54 152.91c-22.2,-32.12 -50.48,-113.6 -31.73,-142.92 45.88,37.57 31.73,84.47 31.73,142.92zm43.54 -152.91l-44.66 -53.53c10.86,-39.46 16.84,-66.85 55.55,-77.53l-10.89 131.06zm-58.84 -96.04c-24.62,-31.48 -21.9,-32.37 15.3,-56.86l-15.3 56.86zm15.3 248.95l32.04 64.26c48.56,-1.16 28.03,15.82 33.28,-31.5 27.98,31.82 44.88,89.52 100.78,68.34 4.3,-30.44 -11,-16.26 -29.24,-51.96 -10.28,-20.13 -14.96,-55.56 -19.19,-80.07 -18.67,-108.15 -19.65,-69.73 35.68,-142.88 -26.2,-61.33 -47.02,9.49 -45.23,-132.2 1.25,-99.06 14.63,-73.31 33.41,-141.78 -56.04,4.88 -63.3,18.03 -87.09,65.53 -123.73,0 -138.28,53.42 -159.21,168.04 -19.12,104.7 15.4,174.52 85.8,244.18l18.97 -29.96z"/>
    <path class="fil0" d="M330.51 696.45c45.87,-26.38 8.09,-129.74 8.09,-204.7 29.25,46.63 13.12,169.45 84.73,183.31 87.73,-118.52 -37.03,-181.7 38.65,-399.04 17.61,-50.56 -24.26,-180.24 -69.86,-134.45 -18.92,19 -1.23,58.56 4.46,95.71 8.27,54.02 -3.5,44.25 -3.55,101.57 -50.19,-72.59 2.32,-223.28 -96.8,-216.07 -25.5,42.55 -29.38,511.14 34.28,573.68z"/>
    <path class="fil0" d="M77.34 175.02c79.69,-52.29 179.49,-114.97 273.81,-97.52 38.78,7.18 70.68,15.56 35.01,-35.05 -71.33,-101.21 -275.24,-7.22 -308.82,132.57z"/>
   </g>
   <path class="fil1" d="M542.73 111.37l0 -56.65 30.91 0c7.77,0 13.42,0.51 16.94,1.53 3.54,1.01 6.34,2.82 8.46,5.42 2.12,2.61 3.18,5.58 3.18,8.93 0,4.26 -1.59,7.77 -4.79,10.54 -3.2,2.77 -7.97,4.51 -14.33,5.24 3.16,1.44 5.77,3.02 7.82,4.75 2.07,1.73 4.84,4.8 8.33,9.2l8.87 11.05 -17.55 0 -10.52 -12.37c-3.78,-4.39 -6.36,-7.16 -7.77,-8.31 -1.39,-1.14 -2.86,-1.93 -4.42,-2.35 -1.57,-0.42 -4.04,-0.63 -7.43,-0.63l-2.98 0 0 23.66 -14.72 0zm14.72 -32.68l10.86 0c7.04,0 11.42,-0.24 13.18,-0.7 1.74,-0.46 3.13,-1.27 4.11,-2.4 1,-1.14 1.49,-2.56 1.49,-4.26 0,-1.91 -0.66,-3.44 -1.96,-4.63 -1.3,-1.17 -3.15,-1.91 -5.52,-2.22 -1.2,-0.13 -4.77,-0.2 -10.71,-0.2l-11.46 0 0 14.4zm-14.72 121.07l0 -56.65 53.81 0 0 9.57 -39.09 0 0 12.58 36.35 0 0 9.57 -36.35 0 0 15.35 40.51 0 0 9.57 -55.23 0zm0 88.39l0 -56.65 14.25 0 29.92 37.97 0 -37.97 13.6 0 0 56.65 -14.7 0 -29.46 -37.24 0 37.24 -13.61 0zm-0.2 176.79l0 -56.65 22.05 0 13.03 38.64 12.87 -38.64 22.1 0 0 56.65 -13.61 0 -0.05 -44.6 -14.33 44.6 -14.14 0 -14.26 -44.6 -0.05 44.6 -13.6 0zm0.2 88.39l0 -56.65 53.81 0 0 9.57 -39.09 0 0 12.58 36.35 0 0 9.57 -36.35 0 0 15.35 40.51 0 0 9.57 -55.23 0zm0 31.74l26.77 0c6.04,0 10.64,0.36 13.81,1.08 4.25,0.98 7.91,2.72 10.93,5.22 3.05,2.49 5.35,5.55 6.94,9.18 1.58,3.61 2.37,8.08 2.37,13.39 0,4.67 -0.75,8.68 -2.23,12.05 -1.81,4.13 -4.4,7.46 -7.77,10.01 -2.54,1.94 -5.97,3.44 -10.29,4.52 -3.23,0.8 -7.55,1.2 -12.96,1.2l-27.56 0 0 -56.65zm14.72 9.57l0 37.5 10.91 0c4.08,0 7.02,-0.18 8.83,-0.54 2.38,-0.46 4.35,-1.25 5.9,-2.36 1.57,-1.11 2.84,-2.93 3.83,-5.46 1,-2.53 1.49,-6 1.49,-10.38 0,-4.38 -0.49,-7.73 -1.49,-10.08 -0.98,-2.35 -2.37,-4.17 -4.15,-5.49 -1.78,-1.3 -4.03,-2.2 -6.77,-2.66 -2.03,-0.36 -6.04,-0.54 -12,-0.54l-6.57 0z"/>
   <path id="1" class="fil2 str0" d="M542.73 111.37l0 -56.65 30.91 0c7.77,0 13.42,0.51 16.94,1.53 3.54,1.01 6.34,2.82 8.46,5.42 2.12,2.61 3.18,5.58 3.18,8.93 0,4.26 -1.59,7.77 -4.79,10.54 -3.2,2.77 -7.97,4.51 -14.33,5.24 3.16,1.44 5.77,3.02 7.82,4.75 2.07,1.73 4.84,4.8 8.33,9.2l8.87 11.05 -17.55 0 -10.52 -12.37c-3.78,-4.39 -6.36,-7.16 -7.77,-8.31 -1.39,-1.14 -2.86,-1.93 -4.42,-2.35 -1.57,-0.42 -4.04,-0.63 -7.43,-0.63l-2.98 0 0 23.66 -14.72 0zm14.72 -32.68l10.86 0c7.04,0 11.42,-0.24 13.18,-0.7 1.74,-0.46 3.13,-1.27 4.11,-2.4 1,-1.14 1.49,-2.56 1.49,-4.26 0,-1.91 -0.66,-3.44 -1.96,-4.63 -1.3,-1.17 -3.15,-1.91 -5.52,-2.22 -1.2,-0.13 -4.77,-0.2 -10.71,-0.2l-11.46 0 0 14.4zm-14.72 121.07l0 -56.65 53.81 0 0 9.57 -39.09 0 0 12.58 36.35 0 0 9.57 -36.35 0 0 15.35 40.51 0 0 9.57 -55.23 0zm0 88.39l0 -56.65 14.25 0 29.92 37.97 0 -37.97 13.6 0 0 56.65 -14.7 0 -29.46 -37.24 0 37.24 -13.61 0zm-0.2 176.79l0 -56.65 22.05 0 13.03 38.64 12.87 -38.64 22.1 0 0 56.65 -13.61 0 -0.05 -44.6 -14.33 44.6 -14.14 0 -14.26 -44.6 -0.05 44.6 -13.6 0zm0.2 88.39l0 -56.65 53.81 0 0 9.57 -39.09 0 0 12.58 36.35 0 0 9.57 -36.35 0 0 15.35 40.51 0 0 9.57 -55.23 0zm0 31.74l26.77 0c6.04,0 10.64,0.36 13.81,1.08 4.25,0.98 7.91,2.72 10.93,5.22 3.05,2.49 5.35,5.55 6.94,9.18 1.58,3.61 2.37,8.08 2.37,13.39 0,4.67 -0.75,8.68 -2.23,12.05 -1.81,4.13 -4.4,7.46 -7.77,10.01 -2.54,1.94 -5.97,3.44 -10.29,4.52 -3.23,0.8 -7.55,1.2 -12.96,1.2l-27.56 0 0 -56.65zm14.72 9.57l0 37.5 10.91 0c4.08,0 7.02,-0.18 8.83,-0.54 2.38,-0.46 4.35,-1.25 5.9,-2.36 1.57,-1.11 2.84,-2.93 3.83,-5.46 1,-2.53 1.49,-6 1.49,-10.38 0,-4.38 -0.49,-7.73 -1.49,-10.08 -0.98,-2.35 -2.37,-4.17 -4.15,-5.49 -1.78,-1.3 -4.03,-2.2 -6.77,-2.66 -2.03,-0.36 -6.04,-0.54 -12,-0.54l-6.57 0z"/>
  </g>
 </g>
</svg>
